<svg id="Layer_1" data-name="Layer 1" xmlns="http://www.w3.org/2000/svg" viewBox="0 0 823.97 185.68"><defs><style>.cls-1{fill:#662483;}.cls-2{fill:#f9b233;}.cls-3{fill:#8632b2;}.cls-4{fill:#39154c;}</style></defs><path class="cls-1" d="M280.73,166.74Q264,150.58,264,121.45V50h43.81v70.16q0,14.29,5.1,20.79t14.76,6.49q9.65,0,14.76-6.49t5.1-20.79V50h43.06v71.46q0,29.14-16.7,45.29t-46.59,16.15Q297.42,182.89,280.73,166.74Z" transform="translate(-8.96 -5.49)"/><path class="cls-1" d="M544.3,50V179.92h-36l-49.37-59v59H416.23V50h36l49.37,59V50Z" transform="translate(-8.96 -5.49)"/><path class="cls-2" d="M679.05,146.88v33H571V50H676.64V83H614.09V98.25H669V129.8H614.09v17.08Z" transform="translate(-8.96 -5.49)"/><path class="cls-2" d="M782.82,179.92l-22.46-34.71-21.91,34.71H688.52l47-65.52L690.19,50h49.19l22.09,32.67L783,50h47.15L785,112.72l47.89,67.2Z" transform="translate(-8.96 -5.49)"/><path class="cls-1" d="M218.55,139.82a44.48,44.48,0,0,0,18.19-16.52Q243,112.92,243.05,99q0-14.85-7.24-26a46.25,46.25,0,0,0-20.6-17.07Q201.85,50,183.84,50H121.29V179.92h43.8V147.25H177l22.09,32.67h46.77Zm-53.31-12.3V114.21h-.15V83.77h.15V70.46L214.65,99Z" transform="translate(-8.96 -5.49)"/><polygon class="cls-1" points="94.14 67.06 9.27 18.06 9.27 116.06 94.14 67.06"/><polygon class="cls-3" points="98.96 131.26 49.6 102.76 49.6 159.75 98.96 131.26"/><polygon class="cls-4" points="126 18.06 94.73 0 94.73 36.11 126 18.06"/><polygon class="cls-4" points="22.81 172.51 0 159.34 0 185.68 22.81 172.51"/><polygon class="cls-3" points="186.43 93.5 164.48 80.82 164.48 106.17 186.43 93.5"/></svg>